# xmcd
# 
# Track frame offsets:
#     150
#     14323
#     27056
#     42015
#     58494
#     75568
#     91553
#     108903
#     124290
#     140251
#     155206
# 
# Disc length: 2409
# 
# Revision: 2
# Processed by: cddbd v1.5.2PL0 Copyright (c) Steve Scherf et al.
# Submitted via: fre:ac v1.0.27
# 
DISCID=8409670b
DTITLE=The Virtues - Ruminate
DYEAR=2003
DGENRE=English Rock
TTITLE0=New Years Resolution
TTITLE1=Untitled
TTITLE2=Matchday
TTITLE3=Alarm Call
TTITLE4=Is That So?
TTITLE5=Crackleware
TTITLE6=Wrongdoer
TTITLE7='Bout to be Told
TTITLE8=Die Happy
TTITLE9=The Infidel
TTITLE10=On the 1st Day of May
EXTD=
EXTT0=
EXTT1=
EXTT2=
EXTT3=
EXTT4=
EXTT5=
EXTT6=
EXTT7=
EXTT8=
EXTT9=
EXTT10=
PLAYORDER=
